<!DOCTYPE svg PUBLIC "-//W3C//DTD SVG 1.1//EN" "http://www.w3.org/Graphics/SVG/1.1/DTD/svg11.dtd">
<!-- Uploaded to: SVG Repo, www.svgrepo.com, Transformed by: SVG Repo Mixer Tools -->
<svg width="100px" height="100px" viewBox="-2 0 20 20" xmlns="http://www.w3.org/2000/svg" fill="#CD7F32" stroke="#CD7F32">
<g id="SVGRepo_bgCarrier" stroke-width="0"/>
<g id="SVGRepo_tracerCarrier" stroke-linecap="round" stroke-linejoin="round"/>
<g id="SVGRepo_iconCarrier"> <g id="medal-5" transform="translate(-4 -2)"> <path id="secondary" fill="#804A002ca9bc" d="M12,7a7,7,0,1,0,7,7,7,7,0,0,0-7-7Zm1.24,8.75L12,15.15l-1.24.6L11,14.48l-1-.89,1.38-.19L12,12.25l.62,1.15,1.38.19-1,.89Z"/> <path id="primary" d="M16.83,8.95,19,3H13.86L12.34,7.02" fill="none" stroke="#804A00" stroke-linecap="round" stroke-linejoin="round" stroke-width="2"/> <path id="primary-2" data-name="primary" d="M11.66,7.02,10.14,3H5L7.17,8.95" fill="none" stroke="#804A00" stroke-linecap="round" stroke-linejoin="round" stroke-width="2"/> <path id="primary-3" data-name="primary" d="M12.62,13.4l1.38.19-1,.89.24,1.27L12,15.15l-1.24.6L11,14.48l-1-.89,1.38-.19L12,12.25ZM12,7a7,7,0,1,0,7,7,7,7,0,0,0-7-7Z" fill="none" stroke="#804A00" stroke-linecap="round" stroke-linejoin="round" stroke-width="2"/> </g> </g>
</svg>